<svg xmlns="http://www.w3.org/2000/svg" width="182" height="182" viewBox="0 0 182 182">
    <defs>
        <clipPath id="clip-path">
            <circle id="타원_9" data-name="타원 9" cx="91" cy="91" r="91" style="fill:#eee"/>
        </clipPath>
        <clipPath id="clip-path-2">
            <path id="사각형_748" data-name="사각형 748" style="fill:none" d="M0 0h151.113v212.166H0z"/>
        </clipPath>
        <linearGradient id="linear-gradient" x1=".5" x2=".5" y2="1" gradientUnits="objectBoundingBox">
            <stop offset="0" stop-color="#ffa058"/>
            <stop offset="1" stop-color="#ff586f"/>
        </linearGradient>
        <style>
            .cls-6{fill:#080404}.cls-7{fill:#f9b724}.cls-8{fill:#fff}.cls-9{fill:#9f9794}.cls-11{fill:#6f6967}.cls-12{fill:#00191e}.cls-13{fill:#23788c}
        </style>
    </defs>
    <g id="그룹_34" data-name="그룹 34">
        <circle id="타원_10" data-name="타원 10" cx="91" cy="91" r="91" style="fill:url(#linear-gradient)"/>
        <g id="마스크_그룹_6" data-name="마스크 그룹 6" style="clip-path:url(#clip-path)">
            <g id="그룹_33" data-name="그룹 33" transform="translate(21.769 19.197)">
                <g id="그룹_32" data-name="그룹 32" style="clip-path:url(#clip-path-2)">
                    <path id="패스_718" data-name="패스 718" class="cls-6" d="M84.611 112.985h-.058a.761.761 0 0 1-.7-.684c-.5-5.072-3.254-9.705-8.2-13.77a.758.758 0 0 1 .188-1.287c4.816-2.042 7.423-5.9 7.97-11.812l.037-.551a.76.76 0 0 1 1.5-.1c.035.174.075.349.122.523 1.533 6.558 4.581 10.663 9.069 12.221a.761.761 0 0 1 .131 1.378c-4.64 2.677-7.78 7.221-9.329 13.5a.759.759 0 0 1-.736.577" transform="translate(56.057 62.597)"/>
                    <path id="패스_719" data-name="패스 719" class="cls-7" d="M76.613 96.243a22.756 22.756 0 0 1 7.25 10.882A21.035 21.035 0 0 1 91.729 96.5c-3.562-1.719-6.183-5-7.815-9.789a13.82 13.82 0 0 1-7.3 9.533" transform="translate(56.976 64.484)"/>
                    <path id="패스_720" data-name="패스 720" class="cls-6" d="M10.733 70.818h-.058a.761.761 0 0 1-.7-.684c-.584-6.007-3.848-11.5-9.7-16.316a.759.759 0 0 1 .189-1.288c5.909-2.485 9.018-7.275 9.508-14.64a.759.759 0 0 1 1.5-.113c1.78 8.106 5.456 13.186 10.924 15.1a.76.76 0 0 1 .129 1.376c-5.5 3.168-9.219 8.549-11.057 15.991a.759.759 0 0 1-.736.577" transform="translate(0 27.65)"/>
                    <path id="패스_721" data-name="패스 721" class="cls-7" d="M1.24 51.477c4.586 4.014 7.519 8.476 8.76 13.31a24.787 24.787 0 0 1 9.561-13c-4.373-2.035-7.559-6.054-9.5-11.99a16.144 16.144 0 0 1-8.821 11.68" transform="translate(.922 29.597)"/>
                    <path id="패스_722" data-name="패스 722" class="cls-6" d="M19.013 45.375a.76.76 0 0 1-.718-.513 20.275 20.275 0 0 0-6.595-9.379.758.758 0 0 1 .16-1.285c2.881-1.3 5.058-3.958 6.474-7.9a.759.759 0 0 1 1.43 0c1.452 4.045 3.643 6.748 6.509 8.035a.759.759 0 0 1 .143 1.3 19.489 19.489 0 0 0-4.516 4.452 20.452 20.452 0 0 0-2.166 4.769.759.759 0 0 1-.717.521z" transform="translate(8.489 19.181)"/>
                    <path id="패스_723" data-name="패스 723" class="cls-7" d="M12.632 33.856a21.611 21.611 0 0 1 5.449 7.435 18.423 18.423 0 0 1 1.655-3.24 19.5 19.5 0 0 1 3.918-4.087 14.109 14.109 0 0 1-5.51-6.577 13.879 13.879 0 0 1-5.512 6.469" transform="translate(9.394 20.367)"/>
                    <path id="패스_724" data-name="패스 724" class="cls-8" d="M56.411 146.444q.094-2.906-.019-6.572-4.6 2.621-12.764 1.52 1.368 2.241 2.888 4.445a1.285 1.285 0 0 0 .075.133 1.285 1.285 0 0 1-.075-.133l-.418.265-.741.038a56.543 56.543 0 0 0-11.282 1.634 24.209 24.209 0 0 0-4.976 1.841 3.956 3.956 0 0 0-1.386 1.292 1.672 1.672 0 0 0-.058.969 1.008 1.008 0 0 0 .532.739l.513.286a3.2 3.2 0 0 1 1.348-1.235A3.2 3.2 0 0 0 28.7 152.9a1.978 1.978 0 0 0-.228.532 1.49 1.49 0 0 0 .418 1.786 4.1 4.1 0 0 0 2.717.513q1.9-.115 6.572-.267 4.653-.17 9.135-.551a33.388 33.388 0 0 0 5.395-.72 5.9 5.9 0 0 0 1.709-.989 5.021 5.021 0 0 0 1.348-2.26 16.186 16.186 0 0 0 .647-4.5m41.1-23.133a14.734 14.734 0 0 0-3.1 3.514 44.4 44.4 0 0 0-2.317 4.141l-1.67 3.285-1.5 2.888 1.5-2.888q-1.786-2.812-3.02-4.806-7.58 2.848-8.718 9.154l4.863 3.857q1.52 1.216 2.164 1.67a11.685 11.685 0 0 0 2.394 1.273 6.575 6.575 0 0 0 2.717.4 4.525 4.525 0 0 0 2.506-.874 35.279 35.279 0 0 0 5-5.489q2.166-3 4.844-6.136a19.2 19.2 0 0 0 3.266-4.729 3.687 3.687 0 0 0 .286-2.411 1.736 1.736 0 0 0-.609-.8 1.179 1.179 0 0 0-.949-.246l-.457.133a2.9 2.9 0 0 1 .019.38 16.09 16.09 0 0 0-.038.588v.38c-.063.166-.157.228-.284.19.127.038.221-.024.284-.19v-.38c.014-.265.026-.462.038-.588a2.9 2.9 0 0 0-.019-.38 2.349 2.349 0 0 0-.075-.228 1.707 1.707 0 0 0-.38-.7 3.1 3.1 0 0 0-.418-.38 1.443 1.443 0 0 0-.778-.284 1.524 1.524 0 0 0-.8.133v.038a2.07 2.07 0 0 1-.284 1.918 2.07 2.07 0 0 0 .284-1.918v-.038a2.122 2.122 0 0 0-1.273-1.425q-1.5-.552-3.475.95m-43.268-3.59h.154a21.229 21.229 0 0 0 3.323-.3q19.206-.29 12.138-44.579l-32.65 4.35q-2.142 40.564 17.037 40.532" transform="translate(20.532 55.655)"/>
                    <path id="패스_725" data-name="패스 725" class="cls-9" d="M78.23 106.4v-.058q-.949-2.906-2.014-5.622a10.74 10.74 0 0 0-.113-.323l-.019-.019v-.019q-.248-.607-.493-1.177.246.57.493 1.177v.019l.019.019q1.765 4.444 10.314-26.743H27.079l4.16 31.719q.228 2.166.57 4.349.379 2.317.893 4.635a85.507 85.507 0 0 0 3.723 12.422 94.8 94.8 0 0 0 7.2 14.835q.191.322.4.664 8.166 1.1 12.764-1.52l-.476-8.148a74.888 74.888 0 0 0 10.922-2.544l11.852 9.419q1.14-6.3 8.718-9.154-.874-1.386-1.482-2.375a53.523 53.523 0 0 1-3.894-7.121 36.819 36.819 0 0 1-1.634-5q-.188-.779-.361-1.482l-.949-3.646q-.588-2.184-1.235-4.255a.079.079 0 0 0-.019-.058M54.791 120.6h-.151q-19.18.031-17.037-40.532l32.65-4.35q7.067 44.291-12.138 44.582a21.23 21.23 0 0 1-3.323.3" transform="translate(20.138 54.773)"/>
                    <path id="패스_726" data-name="패스 726" class="cls-6" d="M31.365 146.829a4.165 4.165 0 0 1-2.621-.692 2.237 2.237 0 0 1-.684-2.581 1.757 1.757 0 0 1-.825-1.2 2.431 2.431 0 0 1 .085-1.386.832.832 0 0 1 .038-.091 4.582 4.582 0 0 1 1.65-1.58.333.333 0 0 1 .047-.028 24.546 24.546 0 0 1 5.139-1.909 57.585 57.585 0 0 1 11.416-1.66c-.8-1.189-1.576-2.4-2.307-3.6q-.212-.345-.4-.675a95.641 95.641 0 0 1-7.254-14.949 86.937 86.937 0 0 1-3.756-12.53 86.02 86.02 0 0 1-.9-4.675 85.925 85.925 0 0 1-.575-4.392.759.759 0 1 1 1.51-.159c.15 1.425.34 2.875.565 4.312.248 1.514.546 3.058.884 4.588a85.266 85.266 0 0 0 3.691 12.314 94.446 94.446 0 0 0 7.14 14.717c.127.214.258.432.4.657.9 1.47 1.857 2.95 2.856 4.4l.037.056a.594.594 0 0 1 .03.058l.021.035c.228.356.464.7.711 1.048a.761.761 0 0 1-1.238.884c-.148-.209-.295-.42-.436-.629a.716.716 0 0 1-.12.016l-.743.038a56.114 56.114 0 0 0-11.133 1.611 23.738 23.738 0 0 0-4.772 1.758 3.421 3.421 0 0 0-1.079.947.933.933 0 0 0-.016.49.389.389 0 0 0 .092.206 4.277 4.277 0 0 1 1.21-.917.76.76 0 1 1 .7 1.348 2.45 2.45 0 0 0-1.039.936l-.01.017v.005a1.219 1.219 0 0 0-.141.328.346.346 0 0 1-.012.045c-.2.591-.014.8.174.956a3.37 3.37 0 0 0 2.194.345c1.266-.077 3.484-.167 6.591-.267 3.074-.113 6.134-.3 9.1-.549a30.5 30.5 0 0 0 5.2-.68 5.177 5.177 0 0 0 1.484-.861 4.376 4.376 0 0 0 1.109-1.918 15.581 15.581 0 0 0 .605-4.279 103.56 103.56 0 0 0-.019-6.523l-.425-7.311a52.45 52.45 0 0 1-1.053.122.76.76 0 0 1-.157-1.512 47.31 47.31 0 0 0 1.812-.223 74.516 74.516 0 0 0 10.807-2.52.762.762 0 0 1 .7.131l16.7 13.279c1 .8 1.714 1.351 2.133 1.646a10.973 10.973 0 0 0 2.22 1.182 5.843 5.843 0 0 0 2.4.352 3.767 3.767 0 0 0 2.078-.7 34.649 34.649 0 0 0 4.865-5.35c1.445-2 3.088-4.084 4.879-6.18a18.744 18.744 0 0 0 3.132-4.5 2.944 2.944 0 0 0 .286-1.881.982.982 0 0 0-.343-.448.684.684 0 0 0-.2-.1q-.01.154-.021.382v.344a.784.784 0 0 1-.051.274.979.979 0 0 1-1.214.643.761.761 0 0 1-.255-1.322c.014-.276.026-.467.037-.6 0-.075 0-.14-.007-.2a.838.838 0 0 0-.033-.094 1.035 1.035 0 0 1-.042-.143.974.974 0 0 0-.209-.347 2.278 2.278 0 0 0-.3-.269.658.658 0 0 0-.253-.115 2.714 2.714 0 0 1-.544 1.766.76.76 0 0 1-1.219-.907 1.307 1.307 0 0 0 .166-1.252.657.657 0 0 1-.023-.1 1.346 1.346 0 0 0-.8-.867c-.725-.265-1.651.017-2.743.847a14.008 14.008 0 0 0-2.919 3.323 43.4 43.4 0 0 0-2.275 4.068l-1.67 3.285-.005.009-1.5 2.886a.76.76 0 1 1-1.348-.7l1.3-2.5a554.451 554.451 0 0 1-2.79-4.443q-.871-1.384-1.482-2.375a54.691 54.691 0 0 1-3.948-7.228 37.75 37.75 0 0 1-1.667-5.1l-.364-1.494-.947-3.634c-.385-1.43-.8-2.851-1.224-4.221l-.005-.016a.789.789 0 0 1-.045-.192 104.485 104.485 0 0 0-1.963-5.477c-.033-.094-.059-.171-.084-.239a.751.751 0 0 1-.073-.193q-.228-.557-.455-1.081a.76.76 0 0 1 1.395-.605c.162.377.326.765.488 1.167a.869.869 0 0 1 .037.084c.042.11.084.225.124.349.7 1.78 1.381 3.686 2.016 5.629a.686.686 0 0 1 .031.141l.01.044c.425 1.369.837 2.79 1.222 4.221l.954 3.651.364 1.493a36.087 36.087 0 0 0 1.594 4.879 53.218 53.218 0 0 0 3.84 7.018q.609.989 1.479 2.37a451.264 451.264 0 0 0 2.305 3.677l1.067-2.1a44.6 44.6 0 0 1 2.361-4.216 15.565 15.565 0 0 1 3.257-3.69c1.543-1.172 2.954-1.527 4.211-1.067a2.8 2.8 0 0 1 1.445 1.247 2.5 2.5 0 0 1 .427 0 2.205 2.205 0 0 1 1.175.439 3.748 3.748 0 0 1 .518.471l.028.035a3.26 3.26 0 0 1 .342.5 1.98 1.98 0 0 1 1.374.4 2.5 2.5 0 0 1 .874 1.142 4.321 4.321 0 0 1-.282 2.949 19.608 19.608 0 0 1-3.4 4.957 94.456 94.456 0 0 0-4.806 6.087 36.229 36.229 0 0 1-5.107 5.613l-.045.038a5.28 5.28 0 0 1-2.917 1.025 7.368 7.368 0 0 1-3.024-.441 12.514 12.514 0 0 1-2.558-1.357c-.464-.326-1.184-.882-2.218-1.709L67 120.343a76.931 76.931 0 0 1-9.962 2.347l.434 7.459c.077 2.469.084 4.7.019 6.64a16.749 16.749 0 0 1-.685 4.722 5.712 5.712 0 0 1-1.582 2.6 6.709 6.709 0 0 1-1.937 1.118 28.2 28.2 0 0 1-5.587.764c-2.989.253-6.075.439-9.174.555-3.1.1-5.3.188-6.554.263a9.24 9.24 0 0 1-.61.019m46.256-50.46" transform="translate(20.208 65.337)"/>
                    <path id="패스_727" data-name="패스 727" class="cls-8" d="M98.313 49.438a25.182 25.182 0 0 0-2.507-3.514 17.882 17.882 0 0 0-8.3-5.946q-5.317-1.632-11.074 2.3a27.834 27.834 0 0 0-7.008 7.161q-.97 1.386-1.843 2.943-.874-1.556-1.841-2.943a27.811 27.811 0 0 0-7.01-7.161q-5.754-3.931-11.072-2.3a17.882 17.882 0 0 0-8.3 5.946 28.049 28.049 0 0 0-6.021 12.82 58.44 58.44 0 0 0-1.027 11.378 52.28 52.28 0 0 0 1.179 11.7 40.183 40.183 0 0 1-18.747-6.382 7.074 7.074 0 0 0-4.028-1.064A2.787 2.787 0 0 0 8.663 75.5a4.091 4.091 0 0 0-.248 3.133 16.423 16.423 0 0 0 2.565 5.737 2.565 2.565 0 0 0-2.888 1.519q-.837 1.92 1.064 4.921Q14.932 99.943 28 106.3a77.788 77.788 0 0 0 22.924 6.971q2.621.361 5.318.589a194.3 194.3 0 0 0 23.59.284q3.591-.209 7.085-.7a75.939 75.939 0 0 0 13.866-3.362 64.539 64.539 0 0 0 16.734-8.528 38.828 38.828 0 0 0 10.446-10.75q1.9-3 1.064-4.921a2.565 2.565 0 0 0-2.888-1.519 16.487 16.487 0 0 0 2.561-5.734 4.1 4.1 0 0 0-.248-3.133 2.79 2.79 0 0 0-2.051-1.121 7.074 7.074 0 0 0-4.028 1.064 79.142 79.142 0 0 1-9.857 4.2 41.226 41.226 0 0 1-10.542 2.183 48.056 48.056 0 0 0 1.027-11.7 64.94 64.94 0 0 0-1.179-11.378 29.6 29.6 0 0 0-3.514-9.306" transform="translate(5.828 29.375)"/>
                    <path id="패스_728" data-name="패스 728" class="cls-9" d="M101.314 14.88Q97.174 4.149 89.2 1.2a11.42 11.42 0 0 0-9.859.778q-5.126 2.812-8.548 10.961A71.672 71.672 0 0 0 66.081 32.6q-.722 6.458-.893 13.142.209 5.548.038 10.542-.191-5.338-.038-10.542-.267-6.228-1.044-13.142a71.672 71.672 0 0 0-4.71-19.658q-3.421-8.15-8.548-10.961a11.42 11.42 0 0 0-9.858-.781q-7.977 2.947-12.117 13.68a38.31 38.31 0 0 0-1.862 21.52 38.515 38.515 0 0 0 6.439 15.2 30.309 30.309 0 0 0 10.085 9.116l.57.3.607.305-.912.265q-14.926 4.5-22.938 15.022-8.262 10.828-9.1 27.883a40.2 40.2 0 0 0 18.746 6.382 52.388 52.388 0 0 1-1.177-11.7A58.569 58.569 0 0 1 30.392 87.8a28.076 28.076 0 0 1 6.021-12.82 17.894 17.894 0 0 1 8.3-5.946q5.317-1.632 11.072 2.3A27.784 27.784 0 0 1 62.8 78.49q.968 1.386 1.841 2.943.874-1.556 1.843-2.943a27.778 27.778 0 0 1 7.008-7.161q5.757-3.931 11.074-2.3a17.89 17.89 0 0 1 8.3 5.946 25.223 25.223 0 0 1 2.504 3.515 29.6 29.6 0 0 1 3.513 9.31 64.76 64.76 0 0 1 1.177 11.378 47.985 47.985 0 0 1-1.025 11.7 41.158 41.158 0 0 0 10.542-2.185 79.106 79.106 0 0 0 9.857-4.2q-.759-15.612-7.749-26-.646-.97-1.35-1.881-8.014-10.522-22.924-15-.458-.152-.912-.267c.2-.1.4-.207.607-.323l.57-.3A27.555 27.555 0 0 0 97.25 51.6a42.039 42.039 0 0 0 5.927-15.2 38.31 38.31 0 0 0-1.862-21.519m-11.32.7a29.862 29.862 0 0 1 3.742 15 40.447 40.447 0 0 1-4.577 16.828 43.592 43.592 0 0 1-4.5 7.046 21.69 21.69 0 0 1-3.761 4.2 4.344 4.344 0 0 1-3.208.568 5.617 5.617 0 0 1-1.634-.493 21.308 21.308 0 0 0 1.976-10.521 88.612 88.612 0 0 0-2.071-13.221 33.756 33.756 0 0 1-.474-12.9 28.08 28.08 0 0 1 5.427-12.223q5.508.379 9.079 5.718m-53.5 15a29.862 29.862 0 0 1 3.742-15q3.57-5.338 9.079-5.718A28.08 28.08 0 0 1 54.742 22.1a33.756 33.756 0 0 1-.474 12.9A88.612 88.612 0 0 0 52.2 48.214a21.308 21.308 0 0 0 1.976 10.521 5.6 5.6 0 0 1-1.634.493 4.344 4.344 0 0 1-3.208-.568 21.69 21.69 0 0 1-3.761-4.2 43.592 43.592 0 0 1-4.5-7.046 40.447 40.447 0 0 1-4.577-16.828" transform="translate(8.773 .323)"/>
                    <path id="패스_729" data-name="패스 729" d="M29.7 11.561a29.862 29.862 0 0 0-3.742 15 40.447 40.447 0 0 0 4.577 16.828 43.593 43.593 0 0 0 4.5 7.046 21.69 21.69 0 0 0 3.761 4.2 4.344 4.344 0 0 0 3.208.568 5.617 5.617 0 0 0 1.634-.493 21.308 21.308 0 0 1-1.976-10.521 88.612 88.612 0 0 1 2.078-13.218 33.756 33.756 0 0 0 .474-12.9 28.081 28.081 0 0 0-5.432-12.228q-5.508.379-9.079 5.718m53.5 15a29.862 29.862 0 0 0-3.742-15Q75.9 6.222 70.386 5.843a28.081 28.081 0 0 0-5.432 12.232 33.756 33.756 0 0 0 .474 12.9A88.61 88.61 0 0 1 67.5 44.192a21.308 21.308 0 0 1-1.976 10.521 5.6 5.6 0 0 0 1.634.493 4.344 4.344 0 0 0 3.208-.568 21.69 21.69 0 0 0 3.761-4.2 43.592 43.592 0 0 0 4.5-7.046 40.448 40.448 0 0 0 4.577-16.828" transform="translate(19.301 4.345)" style="fill:#f4c6b4"/>
                    <path id="패스_730" data-name="패스 730" class="cls-6" d="M87.239 143.581a.76.76 0 0 1-.108-1.512 75.413 75.413 0 0 0 13.726-3.327 64.049 64.049 0 0 0 16.539-8.429 38.239 38.239 0 0 0 10.248-10.539c1.118-1.765 1.456-3.182 1.008-4.209-.242-.563-.7-1.194-2.122-1.067a.758.758 0 0 1-.7-1.174 15.787 15.787 0 0 0 2.452-5.465c.309-1.54.106-2.234-.117-2.544a2.044 2.044 0 0 0-1.52-.809 6.357 6.357 0 0 0-3.566.969.786.786 0 0 1-.436.1.763.763 0 0 1-.553-.307.76.76 0 0 1-.12-.251.782.782 0 0 1-.026-.178c-.5-10.213-3.064-18.826-7.62-25.6a32.849 32.849 0 0 0-1.32-1.841C107.78 70.54 100.2 65.583 90.46 62.655c-.307-.1-.595-.187-.877-.256a.76.76 0 0 1-.157-1.418c.192-.1.385-.2.577-.305l.584-.312a26.912 26.912 0 0 0 9.3-8.865 41.456 41.456 0 0 0 5.813-14.922 37.758 37.758 0 0 0-1.826-21.1C101.206 8.568 97.279 4.115 92.2 2.24a10.605 10.605 0 0 0-9.229.732c-3.248 1.78-6.01 5.343-8.211 10.588a71.257 71.257 0 0 0-4.66 19.449 154.501 154.501 0 0 0-.888 13.055c.139 3.69.152 7.245.038 10.572a.76.76 0 0 1-1.519 0c-.127-3.548-.139-7.1-.038-10.563-.176-4.106-.527-8.5-1.039-13.064A71.257 71.257 0 0 0 62 13.56c-2.2-5.245-4.963-8.807-8.211-10.588a10.6 10.6 0 0 0-9.229-.732c-5.08 1.875-9.009 6.328-11.673 13.236a37.751 37.751 0 0 0-1.826 21.1 37.927 37.927 0 0 0 6.312 14.9 29.65 29.65 0 0 0 9.827 8.891l1.154.6a.759.759 0 0 1-.127 1.407l-.912.267c-9.744 2.938-17.334 7.9-22.553 14.755-5.384 7.057-8.394 16.291-8.942 27.444a.912.912 0 0 1-.028.181.783.783 0 0 1-.119.246.738.738 0 0 1-.237.211.763.763 0 0 1-.579.073.837.837 0 0 1-.173-.071 6.386 6.386 0 0 0-3.568-.969 2.04 2.04 0 0 0-1.52.811c-.223.309-.424 1-.117 2.539a15.766 15.766 0 0 0 2.453 5.468.759.759 0 0 1-.7 1.174c-1.418-.127-1.878.5-2.122 1.065-.448 1.029-.108 2.446 1.01 4.211 3.754 5.941 9.99 11.062 18.532 15.222a77.392 77.392 0 0 0 22.7 6.9.759.759 0 1 1-.218 1.5 78.863 78.863 0 0 1-23.147-7.037c-8.8-4.286-15.245-9.594-19.153-15.777-1.4-2.218-1.78-4.112-1.118-5.629a3.121 3.121 0 0 1 2.26-1.9 15.837 15.837 0 0 1-1.986-4.9c-.337-1.684-.214-2.9.375-3.723A3.528 3.528 0 0 1 10.953 103a6.849 6.849 0 0 1 3.418.638c.708-10.964 3.8-20.1 9.187-27.163 5.261-6.907 12.816-11.958 22.466-15.024a31.356 31.356 0 0 1-9.885-9.086A39.424 39.424 0 0 1 29.57 36.87a39.249 39.249 0 0 1 1.9-21.939C34.3 7.6 38.526 2.847 44.032.816a12.193 12.193 0 0 1 10.485.825C58.076 3.59 61.063 7.4 63.4 12.972a72.734 72.734 0 0 1 4.765 19.868q.115 1.01.218 2.007.1-1.007.211-2.007a72.734 72.734 0 0 1 4.764-19.867C75.694 7.4 78.683 3.59 82.24 1.64A12.2 12.2 0 0 1 92.726.816c5.507 2.031 9.734 6.784 12.564 14.113a39.242 39.242 0 0 1 1.9 21.941 42.966 42.966 0 0 1-6.037 15.465 28.6 28.6 0 0 1-9.416 9.125c9.639 3.044 17.2 8.1 22.471 15.013.478.619.942 1.266 1.378 1.92 4.542 6.752 7.168 15.24 7.812 25.243a6.842 6.842 0 0 1 3.416-.638 3.536 3.536 0 0 1 2.582 1.428c.591.823.715 2.042.377 3.73a15.838 15.838 0 0 1-1.986 4.9 3.122 3.122 0 0 1 2.262 1.9c.661 1.515.284 3.409-1.119 5.627a39.747 39.747 0 0 1-10.65 10.967 65.483 65.483 0 0 1-16.928 8.628 77.035 77.035 0 0 1-14 3.4.813.813 0 0 1-.112.007" transform="translate(5.506 .001)"/>
                    <path id="패스_731" data-name="패스 731" class="cls-6" d="M63.441 7.559q-.515.74-1.311 2.166a29.737 29.737 0 0 0-1.43 2.981 26.792 26.792 0 0 0-1.2 3.723l-.19.779-.019.133-.038.133-.094.513-.038.134v.079l-.019.077-.077.532-.025.127-.324 3.97.361 5.489 2.317 13.58.171 2.392-.037 2.888a20.47 20.47 0 0 1-.438 3.1 17.148 17.148 0 0 1-.645 2.317l-.077.227-.058.115-.323.816-.075.133-.286.628-.019.019a.788.788 0 0 0-.037.588.754.754 0 0 0 .4.418.652.652 0 0 0 .57.038.689.689 0 0 0 .438-.38v-.019l.8-1.843.077-.246a15.823 15.823 0 0 0 .684-2.507 23.952 23.952 0 0 0 .436-3.323l.019-2.983-.019-.017-.065-.936q-.152-1.786-.532-4.293l-2.165-11.472-.284-3.153v-.57l-.019-.152v-1.272l.378-4.045v-.1l.019-.019.324-1.632a26.446 26.446 0 0 1 1.119-3.571q.57-1.425 1.33-2.888.74-1.35 1.254-2.127l1.236-1.763a.579.579 0 0 0 .094-.38.531.531 0 0 0-.209-.323.5.5 0 0 0-.38-.077.467.467 0 0 0-.323.19L63.573 7.33zm-30.22-1.918a.461.461 0 0 0-.19.323.5.5 0 0 0 .077.38l1.234 1.766q.513.779 1.254 2.127.758 1.462 1.329 2.888a26.712 26.712 0 0 1 1.121 3.575l.323 1.632.019.019v.1l.228 1.6.152 3.723-.019.152-.1 1.995-.626 4.33-1.723 8.856q-.382 2.508-.532 4.293l-.058.931-.019.017.019 2.983a23.944 23.944 0 0 0 .438 3.323 15.822 15.822 0 0 0 .684 2.507l.075.246.058.115.741 1.728a.76.76 0 0 0 .417.4.736.736 0 0 0 .589-.019.841.841 0 0 0 .4-.438.788.788 0 0 0-.038-.588l-.019-.019-.816-1.918a16.89 16.89 0 0 1-.647-2.317 20.258 20.258 0 0 1-.436-3.1l-.019-3.494.152-1.786L39.6 28.4l.361-5.489-.019-.153v-.284l-.3-3.533-.042-.141-.077-.532-.017-.077v-.071l-.038-.134-.1-.513-.038-.133-.017-.133-.19-.779a26.807 26.807 0 0 0-1.2-3.723 29.735 29.735 0 0 0-1.425-2.982q-.8-1.425-1.31-2.166l-.133-.228-1.14-1.576a.467.467 0 0 0-.323-.19.5.5 0 0 0-.38.077" transform="translate(24.558 4.131)"/>
                    <path id="패스_732" data-name="패스 732" class="cls-11" d="M27.032 45.076a10.728 10.728 0 0 1 8.509-4.406 4.527 4.527 0 0 0-2.6-1.235 5.449 5.449 0 0 0-2.982.342 4.724 4.724 0 0 0-2.413 2.031 5.057 5.057 0 0 0-.513 3.268" transform="translate(20.053 29.273)"/>
                    <path id="패스_733" data-name="패스 733" class="cls-6" d="M27.275 45.889a.587.587 0 0 1-.145-.017.576.576 0 0 1-.42-.473 5.642 5.642 0 0 1 .581-3.625 5.292 5.292 0 0 1 2.692-2.281 6.053 6.053 0 0 1 3.29-.378 5.109 5.109 0 0 1 2.91 1.391.571.571 0 0 1-.378.976 10.089 10.089 0 0 0-8.077 4.183.572.572 0 0 1-.453.223m5.011-5.712a4.9 4.9 0 0 0-1.871.371 4.127 4.127 0 0 0-2.131 1.784 3.951 3.951 0 0 0-.473 1.489 11.045 11.045 0 0 1 6.309-3.32 4.552 4.552 0 0 0-1.02-.262 4.978 4.978 0 0 0-.814-.066" transform="translate(19.81 29.03)"/>
                    <path id="패스_734" data-name="패스 734" class="cls-11" d="M52.885 40.67a10.725 10.725 0 0 1 8.509 4.406 5.05 5.05 0 0 0-.513-3.266 4.714 4.714 0 0 0-2.412-2.033 5.457 5.457 0 0 0-2.983-.342 4.527 4.527 0 0 0-2.6 1.235" transform="translate(39.329 29.273)"/>
                    <path id="패스_735" data-name="패스 735" class="cls-6" d="M61.637 45.889a.572.572 0 0 1-.453-.223 10.1 10.1 0 0 0-8.077-4.183.57.57 0 0 1-.378-.976 5.1 5.1 0 0 1 2.919-1.391 6.042 6.042 0 0 1 3.28.378 5.285 5.285 0 0 1 2.692 2.281 5.621 5.621 0 0 1 .58 3.625.57.57 0 0 1-.418.473.587.587 0 0 1-.145.017m-6.845-5.39a11.045 11.045 0 0 1 6.308 3.321 3.961 3.961 0 0 0-.473-1.489 4.133 4.133 0 0 0-2.134-1.786 4.933 4.933 0 0 0-2.673-.305 4.676 4.676 0 0 0-1.029.263" transform="translate(39.086 29.03)"/>
                    <path id="패스_736" data-name="패스 736" class="cls-8" d="M50.151 56.686a2.26 2.26 0 0 0 4.52 0 2.26 2.26 0 0 0-4.52 0" transform="translate(37.296 40.476)"/>
                    <path id="패스_737" data-name="패스 737" class="cls-12" d="M51.756 53.2a15.078 15.078 0 0 0-1.2 1.709Q46.5 61.63 49.42 72.912v.113a34.568 34.568 0 0 0 12.518 1.16q1.044-.931 1.425-1.33a11.6 11.6 0 0 0 1.538-1.9 12.44 12.44 0 0 0 1.8-7.674 12.627 12.627 0 0 0-2.982-7.1 9.718 9.718 0 0 0-5.357-2.963 13.115 13.115 0 0 0-6.61-.019" transform="translate(35.843 39.254)"/>
                    <path id="패스_738" data-name="패스 738" class="cls-13" d="M59.221 52.5a15.3 15.3 0 0 0-6.305-.8 11.465 11.465 0 0 0-2.678 2.335 13.128 13.128 0 0 1 6.609.019A9.722 9.722 0 0 1 62.2 57.02a12.637 12.637 0 0 1 2.982 7.1 12.448 12.448 0 0 1-1.8 7.674 11.7 11.7 0 0 1-1.54 1.9q-.379.4-1.425 1.33a36.109 36.109 0 0 0 4.141-.626 14.182 14.182 0 0 0 2.546-4.18 16.382 16.382 0 0 0 .8-5.489 13.6 13.6 0 0 0-1.139-5.508 11.572 11.572 0 0 0-3.381-4.483 13.812 13.812 0 0 0-4.16-2.241" transform="translate(37.361 38.412)"/>
                    <path id="패스_739" data-name="패스 739" class="cls-8" d="M70.959 72.767q1.69-8.529-1.35-14.91-3.076-6.476-9.346-7.085a13.264 13.264 0 0 0-8.49 1.653 15.332 15.332 0 0 1 6.307.8 13.756 13.756 0 0 1 4.16 2.242 11.579 11.579 0 0 1 3.381 4.481 13.573 13.573 0 0 1 1.139 5.508 16.371 16.371 0 0 1-.8 5.489 14.173 14.173 0 0 1-2.544 4.18 42.012 42.012 0 0 0 7.541-2.356" transform="translate(38.503 37.69)"/>
                    <path id="패스_740" data-name="패스 740" class="cls-6" d="M58.545 75.979a35.343 35.343 0 0 1-9.557-1.32.569.569 0 1 1 .307-1.1A34.257 34.257 0 0 0 61.607 74.7a35.852 35.852 0 0 0 3.88-.577 13.423 13.423 0 0 0 2.321-3.857 15.9 15.9 0 0 0 .764-5.294A13.09 13.09 0 0 0 67.48 59.7a11.053 11.053 0 0 0-3.215-4.267 13.271 13.271 0 0 0-3.99-2.146 14.8 14.8 0 0 0-6.065-.769.569.569 0 1 1-.092-1.135 15.9 15.9 0 0 1 6.528.826 14.339 14.339 0 0 1 4.331 2.337 12.153 12.153 0 0 1 3.545 4.7 14.21 14.21 0 0 1 1.189 5.737 17.029 17.029 0 0 1-.832 5.683 13.308 13.308 0 0 1-1.655 3.072 42.83 42.83 0 0 0 5.9-1.969.57.57 0 1 1 .436 1.053 42.716 42.716 0 0 1-7.646 2.378 36.715 36.715 0 0 1-4.2.638q-1.582.141-3.165.141" transform="translate(36.121 38.169)"/>
                    <path id="패스_741" data-name="패스 741" class="cls-6" d="m71.933 55.291-.626-.854a13.8 13.8 0 0 0-.969-1.1 11.942 11.942 0 0 0-1.138-1.009 11.629 11.629 0 0 0-2.678-1.54l-.551-.19-.171-.075-1.52-.38h-.056l-.038-.019h-.1l-.586-.094h-.1l-.019-.019h-.071l-.19-.019-.077-.019h-.094l-.209-.019h-.1l-.094-.019h-.19a2.689 2.689 0 0 0-.38-.019h-1.515a12.562 12.562 0 0 0-1.54.153l-1.348.284-.094.038-.1.019a11.784 11.784 0 0 0-2.879 1.235l-.152.113-.265.152-.058.058-.075.056-.077.038-1.773 1.52-1.16 1.405-1.139 1.841-1.064 2.527-.019.077-.038.075-.038.171-.056.152-.418 1.653v.077l-.075.3-.19 1.215v.152l-.019.134a19.406 19.406 0 0 0-.133 2.3l.227 3.969q.191 1.368.513 3l.058.305.038.133.019.152.494 1.98a.65.65 0 0 0 .284.417.684.684 0 0 0 .931-.227.736.736 0 0 0 .077-.513h-.019l-.931-5-.171-3.419.038-.76a14.826 14.826 0 0 1 .209-2.108L50 61.369l1.121-2.736.378-.645.019-.019.058-.113.19-.267.075-.133 1.254-1.54 1.14-1.044a5.578 5.578 0 0 1 .493-.361l.493-.323.077-.038.077-.056.075-.038h.019v-.019l.3-.171a11.608 11.608 0 0 1 4.825-1.254l1.311-.038a1.921 1.921 0 0 0 .323.019l.57.019.265.038h.152a9.878 9.878 0 0 1 3.571.95 9.785 9.785 0 0 1 1.064.607c.3.2.628.443.969.722a11.875 11.875 0 0 1 .874.854l.113.115.664.816c.228.3.457.64.684 1.006a3.877 3.877 0 0 1 .305.513l.323.57v.019h.018l.019.077.209.4 1.025 2.659q.322 1.216.474 2.071a18.371 18.371 0 0 1 .267 1.956l.075 2.792-.455 4.274-.038.171a.551.551 0 0 0 .094.418.517.517 0 0 0 .361.246.543.543 0 0 0 .418-.094.519.519 0 0 0 .248-.361l.455-2.6q.209-1.823.248-3.039l-.019-1.9a18.236 18.236 0 0 0-.171-2.092 19.221 19.221 0 0 0-.418-2.26l-.835-2.659-.3-.741-.038-.077v-.019l-.019-.017-.152-.324-.019-.075z" transform="translate(35.514 37.121)"/>
                    <path id="패스_742" data-name="패스 742" class="cls-8" d="M58 58.9a7.85 7.85 0 0 1-3.949-4.863 7.735 7.735 0 0 1-3.951 4.784 11.965 11.965 0 0 1 3.909 5.579 11.579 11.579 0 0 1 1.31-2.849A11.367 11.367 0 0 1 58 58.9m1.634 6.743a1.678 1.678 0 0 0 .532-1.254 1.742 1.742 0 0 0-.532-1.273 1.706 1.706 0 0 0-1.254-.513 1.751 1.751 0 0 0-1.786 1.786 1.706 1.706 0 0 0 .513 1.254 1.742 1.742 0 0 0 1.273.532 1.678 1.678 0 0 0 1.254-.532" transform="translate(37.255 40.183)"/>
                    <path id="패스_743" data-name="패스 743" class="cls-8" d="M36.6 56.686a2.261 2.261 0 1 1-3.855-1.576 2.26 2.26 0 0 1 3.855 1.576" transform="translate(23.856 40.476)"/>
                    <path id="패스_744" data-name="패스 744" class="cls-12" d="M40.983 53.2a14.858 14.858 0 0 1 1.2 1.709q4.065 6.724 1.14 18.007v.113A34.562 34.562 0 0 1 30.8 74.185q-1.046-.931-1.426-1.33a11.6 11.6 0 0 1-1.538-1.9 12.44 12.44 0 0 1-1.8-7.674 12.617 12.617 0 0 1 2.983-7.1 9.713 9.713 0 0 1 5.355-2.963 13.115 13.115 0 0 1 6.61-.019" transform="translate(19.323 39.254)"/>
                    <path id="패스_745" data-name="패스 745" class="cls-13" d="M33.134 52.5a15.3 15.3 0 0 1 6.307-.8 11.492 11.492 0 0 1 2.677 2.335 13.128 13.128 0 0 0-6.609.019 9.722 9.722 0 0 0-5.357 2.963 12.637 12.637 0 0 0-2.982 7.1 12.437 12.437 0 0 0 1.8 7.674 11.6 11.6 0 0 0 1.538 1.9q.379.4 1.425 1.33A36.108 36.108 0 0 1 27.8 74.4a14.136 14.136 0 0 1-2.544-4.18 16.379 16.379 0 0 1-.8-5.489 13.575 13.575 0 0 1 1.14-5.508 11.538 11.538 0 0 1 3.381-4.483 13.781 13.781 0 0 1 4.157-2.24" transform="translate(18.186 38.412)"/>
                    <path id="패스_746" data-name="패스 746" class="cls-8" d="M22.3 72.767q-1.69-8.529 1.348-14.91Q26.731 51.38 33 50.772a13.259 13.259 0 0 1 8.49 1.653 15.332 15.332 0 0 0-6.307.8 13.746 13.746 0 0 0-4.159 2.242 11.562 11.562 0 0 0-3.381 4.481 13.575 13.575 0 0 0-1.14 5.508 16.372 16.372 0 0 0 .8 5.489 14.145 14.145 0 0 0 2.546 4.18 41.968 41.968 0 0 1-7.549-2.358" transform="translate(16.138 37.69)"/>
                    <path id="패스_747" data-name="패스 747" class="cls-6" d="M37.084 75.979q-1.58 0-3.163-.141a36.862 36.862 0 0 1-4.206-.638 42.7 42.7 0 0 1-7.641-2.385.57.57 0 1 1 .436-1.053 42.83 42.83 0 0 0 5.9 1.969 13.222 13.222 0 0 1-1.653-3.071 17.006 17.006 0 0 1-.833-5.684 14.21 14.21 0 0 1 1.189-5.737 12.159 12.159 0 0 1 3.547-4.7 14.354 14.354 0 0 1 4.321-2.339 15.946 15.946 0 0 1 6.53-.826.569.569 0 1 1-.092 1.135 14.774 14.774 0 0 0-6.065.769 13.219 13.219 0 0 0-3.988 2.146 11.039 11.039 0 0 0-3.217 4.267 13.091 13.091 0 0 0-1.092 5.28 15.951 15.951 0 0 0 .764 5.3 13.455 13.455 0 0 0 2.321 3.854 35.882 35.882 0 0 0 3.881.577 34.174 34.174 0 0 0 12.31-1.14.57.57 0 0 1 .309 1.1 35.365 35.365 0 0 1-9.559 1.32" transform="translate(16.153 38.169)"/>
                    <path id="패스_748" data-name="패스 748" class="cls-6" d="m24.6 55.291.626-.854a13.8 13.8 0 0 1 .969-1.1 11.748 11.748 0 0 1 1.14-1.006 11.581 11.581 0 0 1 2.677-1.54l.551-.19.171-.075 1.52-.38h.058l.037-.019h.1l.588-.094h.1l.019-.019h.075l.19-.019.077-.019h.094l.209-.019h.1l.094-.019h.19a2.689 2.689 0 0 1 .38-.019h1.519a12.562 12.562 0 0 1 1.54.153l1.348.284.094.038.1.019a11.783 11.783 0 0 1 2.888 1.235l.152.113.265.152.058.058.077.056.075.038 1.766 1.52 1.16 1.405 1.139 1.841 1.064 2.527.019.077.038.075.038.171.056.152.418 1.653v.077l.077.3.188 1.215v.152l.019.134a19.4 19.4 0 0 1 .134 2.3l-.228 3.969q-.191 1.368-.513 3l-.058.305-.038.133-.019.152-.515 1.977a.65.65 0 0 1-.284.417.673.673 0 0 1-1.006-.739h.017l.931-5 .171-3.419-.038-.76a15.066 15.066 0 0 0-.207-2.108l-.476-2.221-1.119-2.736-.38-.645-.019-.019-.058-.113-.19-.267-.075-.133-1.254-1.54-1.139-1.045a5.577 5.577 0 0 0-.493-.361l-.493-.323-.077-.038-.075-.056-.077-.038h-.019v-.019l-.3-.171a11.608 11.608 0 0 0-4.825-1.254l-1.311-.038a1.921 1.921 0 0 1-.323.019l-.57.019-.265.038h-.152a9.878 9.878 0 0 0-3.571.95 9.787 9.787 0 0 0-1.064.607c-.3.2-.628.443-.969.722a11.876 11.876 0 0 0-.874.854l-.113.115-.664.816c-.228.3-.457.64-.684 1.006a3.876 3.876 0 0 0-.305.513l-.323.57v.019h-.019l-.019.077-.207.4-1.027 2.659q-.322 1.216-.474 2.071a17.966 17.966 0 0 0-.265 1.956l-.077 2.792.455 4.274.038.171a.543.543 0 0 1-.094.418.517.517 0 0 1-.361.246.544.544 0 0 1-.418-.094.519.519 0 0 1-.248-.361l-.455-2.6q-.209-1.823-.248-3.039l.019-1.9a18.638 18.638 0 0 1 .171-2.089 19.221 19.221 0 0 1 .418-2.26l.835-2.659.305-.741.037-.077v-.019l.019-.017.152-.324.019-.075z" transform="translate(15.861 37.121)"/>
                    <path id="패스_749" data-name="패스 749" class="cls-8" d="M36.07 58.9a7.844 7.844 0 0 1-3.949-4.863 7.74 7.74 0 0 1-3.951 4.788 11.965 11.965 0 0 1 3.912 5.575 11.579 11.579 0 0 1 1.31-2.849A11.367 11.367 0 0 1 36.07 58.9m1.63 6.739a1.678 1.678 0 0 0 .532-1.254 1.742 1.742 0 0 0-.532-1.273 1.706 1.706 0 0 0-1.25-.512 1.751 1.751 0 0 0-1.786 1.786 1.706 1.706 0 0 0 .513 1.254 1.742 1.742 0 0 0 1.273.532 1.678 1.678 0 0 0 1.254-.532" transform="translate(20.949 40.183)"/>
                    <path id="패스_750" data-name="패스 750" d="M39.955 68.621a14.334 14.334 0 0 0 1.557 4.387 5.945 5.945 0 0 0 1.215 1.634 2.58 2.58 0 0 0 1.711.664 2.826 2.826 0 0 0 1.786-.493 4.942 4.942 0 0 0 1.138-1.613 15.253 15.253 0 0 0 1.444-4.577 8.724 8.724 0 0 0-8.851 0" transform="translate(29.714 50.136)" style="fill:#d54224"/>
                    <path id="패스_751" data-name="패스 751" d="M49.236 65.42a7.612 7.612 0 0 1-.57.058 7.422 7.422 0 0 1-4.406-1.369 7.418 7.418 0 0 1-4.406 1.369 1.568 1.568 0 0 1-.248-.019 34.44 34.44 0 0 0 .609 5.622 8.724 8.724 0 0 1 8.851 0c.012-.1.024-.2.038-.3a27.075 27.075 0 0 0 .133-5.357" transform="translate(29.454 47.677)" style="fill:#a72018"/>
                    <path id="패스_752" data-name="패스 752" class="cls-6" d="M46.069 79.477a3.142 3.142 0 0 1-2.08-.8 6.464 6.464 0 0 1-1.346-1.8 14.989 14.989 0 0 1-1.615-4.544 34.351 34.351 0 0 1-.6-5.235 2.448 2.448 0 0 1-.328-.068c-1.119-.293-2.443-1.144-2.331-3.521a.557.557 0 0 1 .6-.541.569.569 0 0 1 .542.595c-.065 1.35.4 2.08 1.494 2.366a1.336 1.336 0 0 0 .211.044c.15.026.276.042.406.054h.056a1.026 1.026 0 0 0 .15.01 7.039 7.039 0 0 0 3.838-1.092v-1.803a.569.569 0 0 1 1.139 0v1.815a7.041 7.041 0 0 0 3.826 1.092c.176-.012.342-.03.5-.051a4.156 4.156 0 0 0 .551-.124.684.684 0 0 1 .129-.038c.551-.225 1.233-.717 1.153-2.265a.57.57 0 0 1 1.139-.059 3.086 3.086 0 0 1-1.942 3.411.7.7 0 0 1-.1.03h-.007c-.077.024-.157.045-.237.066A27.142 27.142 0 0 1 51.04 72l-.037.3a15.947 15.947 0 0 1-1.5 4.765 5.421 5.421 0 0 1-1.3 1.8 3.388 3.388 0 0 1-2.138.616m-4.5-12.3a32.63 32.63 0 0 0 .572 4.931 13.888 13.888 0 0 0 1.489 4.213 5.537 5.537 0 0 0 1.1 1.494 2.012 2.012 0 0 0 1.334.523 2.3 2.3 0 0 0 1.433-.373 4.322 4.322 0 0 0 .983-1.425 14.8 14.8 0 0 0 1.39-4.408l.035-.286a25.752 25.752 0 0 0 .162-4.659h-.045a8.22 8.22 0 0 1-4.4-1.242 8.046 8.046 0 0 1-4.058 1.229m9.955-.258" transform="translate(28.083 46.535)"/>
                    <path id="패스_753" data-name="패스 753" class="cls-6" d="m40.426 61.3-.019.019-.209.265a.284.284 0 0 0 .038.438.276.276 0 0 0 .38 0l.152-.115.038-.037.532-.323.058-.019.037-.038.115-.058.113-.038.113-.056.267-.1.059-.038.075-.019.133-.058.228-.058h.077a4.211 4.211 0 0 1 .607-.113c.305-.026.527-.038.666-.038l.075.019h.1l.152.019h.171l.152.038a4.838 4.838 0 0 1 .626.113l.95.342.323.152.1.058.094.038.3.19.058.017.038.038.075.058.077.038a.262.262 0 0 0 .248.058.326.326 0 0 0 .171-.551l-.1-.1-.056-.075-.077-.077-.058-.038-.056-.056-.476-.4-.474-.286-.741-.342-.171-.037-.342-.115L44 59.872h-.5l-.19.019-.1.019h-.094l-.818.19-.075.038-.1.017-.075.038-.171.058-.912.532-.474.436-.058.038z" transform="translate(29.83 44.526)"/>
                    <path id="패스_754" data-name="패스 754" class="cls-6" d="M45.277 62.106a.974.974 0 0 0-.474-.342 4.178 4.178 0 0 0-1.634-.171 5.078 5.078 0 0 0-1.653.171.946.946 0 0 0-.455.342.922.922 0 0 0-.115.513c0 .241.255.544.76.912a2.483 2.483 0 0 0 1.444.609 2.342 2.342 0 0 0 1.444-.589q.7-.531.76-.931a.694.694 0 0 0-.077-.513" transform="translate(30.451 45.805)"/>
                    <path id="패스_755" data-name="패스 755" class="cls-9" d="M16.687 90.267a40.7 40.7 0 0 0 6.668 8.433 20.1 20.1 0 0 0 12.858 5.6 24.9 24.9 0 0 0 2.546-.019q.228-.949 3.323-.457a50.332 50.332 0 0 0-5.527-20.094 9.671 9.671 0 0 1-7.711-2.413 15.262 15.262 0 0 1-2.963-3.4q.892 10.01-9.194 12.345m74.342-6.743a13.611 13.611 0 0 1-4.387.816q-2.888.152-3.913.134-1.025-.039-.077.152.931.17.741.171h-.38q-7.248 21.277 2.279 16.487a33.951 33.951 0 0 0 7.941-.722 19.174 19.174 0 0 0 12.267-9.074q-8.09-1.8-11.491-10.124a9.49 9.49 0 0 1-2.982 2.166" transform="translate(12.41 57.949)"/>
                    <path id="패스_756" data-name="패스 756" class="cls-8" d="M17.241 72.685a6.437 6.437 0 0 0-.058 2.982q-4.862 1.765-3.571 6.591A5.456 5.456 0 0 0 12.549 86a5.785 5.785 0 0 0 1.538 3.323 15.633 15.633 0 0 1 2.375 2.394 28.846 28.846 0 0 1 1.956 3q.683 1.2 1.367 2.3 10.085-2.338 9.193-12.347a26.615 26.615 0 0 1-.626-1.006q-2.375-4.313-3.419-6.685a16.828 16.828 0 0 1-1.386-4.37q-.379-2.715-1.576-3.475-1.216-.779-3.172.57a6.8 6.8 0 0 0-1.557 2.982m2.753 5.109a1.707 1.707 0 0 1 .645 1.006 2.321 2.321 0 0 1-.017 1.217 3.838 3.838 0 0 1-1.578 1.956 1.379 1.379 0 0 1 .344.816 2.074 2.074 0 0 1-.1.912 3.152 3.152 0 0 1-.969 1.519 3.712 3.712 0 0 1-1.651.837 3.712 3.712 0 0 0 1.651-.837 3.152 3.152 0 0 0 .969-1.519 2.074 2.074 0 0 0 .1-.912 1.379 1.379 0 0 0-.344-.816 3.838 3.838 0 0 0 1.578-1.956 2.321 2.321 0 0 0 .017-1.217 1.707 1.707 0 0 0-.645-1.006m88.662-2.095a2.229 2.229 0 0 0-2.206-.722 4.916 4.916 0 0 0-2.431 1.88q-.473.609-.987 1.405-2.391 4.522-3.667 6.706a20.15 20.15 0 0 1-2.258 3.133q3.4 8.32 11.489 10.124a32.377 32.377 0 0 0 3.915-11.738q-.4-2.126-.837-3.894-1.35-5.223-3.018-6.895" transform="translate(9.314 51.2)"/>
                    <path id="패스_757" data-name="패스 757" class="cls-6" d="M40.7 112.161q-.56 0-1.1-.026a20.927 20.927 0 0 1-13.336-5.8 41.557 41.557 0 0 1-6.8-8.589 72.617 72.617 0 0 1-1.381-2.323 28.42 28.42 0 0 0-1.9-2.915 15.1 15.1 0 0 0-2.251-2.267.793.793 0 0 1-.087-.084 6.54 6.54 0 0 1-1.729-3.757 6.124 6.124 0 0 1 1-3.956c-.741-3.221.474-5.6 3.533-6.926a7.5 7.5 0 0 1 .174-2.682 7.6 7.6 0 0 1 1.733-3.315.691.691 0 0 1 .133-.115c1.573-1.086 2.924-1.282 4.012-.584 1 .635 1.63 1.948 1.918 4.01a16.17 16.17 0 0 0 1.329 4.164c.687 1.559 1.826 3.787 3.391 6.628.181.309.387.638.6.959a14.569 14.569 0 0 0 2.816 3.233 8.865 8.865 0 0 0 7.123 2.241c.53-.071.987-.152 1.357-.235a.761.761 0 0 1 .335 1.484c-.412.092-.914.18-1.489.258a10.448 10.448 0 0 1-8.3-2.581 16.163 16.163 0 0 1-3.112-3.569 26.95 26.95 0 0 1-.643-1.034c-1.6-2.9-2.759-5.17-3.461-6.767a17.687 17.687 0 0 1-1.444-4.572c-.274-1.956-.82-2.677-1.231-2.938-.514-.33-1.273-.159-2.26.5a6.138 6.138 0 0 0-1.33 2.59 5.742 5.742 0 0 0-.054 2.626.758.758 0 0 1-.48.886c-2.872 1.043-3.855 2.847-3.1 5.681a.763.763 0 0 1-.112.633 4.662 4.662 0 0 0-.929 3.231 4.964 4.964 0 0 0 1.316 2.85 16.553 16.553 0 0 1 2.439 2.469 29.526 29.526 0 0 1 2.02 3.091c.455.8.91 1.561 1.355 2.277a40.161 40.161 0 0 0 6.537 8.276 19.447 19.447 0 0 0 12.38 5.4 23.7 23.7 0 0 0 2.459-.019l.532-.037a.759.759 0 0 1 .1 1.515l-.525.037h-.019a25.9 25.9 0 0 1-1.515.045m48.249-3.044h-.241a.76.76 0 0 1 0-1.52h.241a32.832 32.832 0 0 0 7.517-.7 18.524 18.524 0 0 0 11.8-8.729 31.671 31.671 0 0 0 3.794-11.337c-.255-1.35-.525-2.6-.8-3.725-.86-3.325-1.808-5.527-2.82-6.541a1.447 1.447 0 0 0-1.473-.523 4.293 4.293 0 0 0-2.03 1.62c-.293.373-.605.818-.926 1.315-1.587 3-2.82 5.252-3.665 6.7A21.059 21.059 0 0 1 98 88.935l-.012.016-.016.016a10.283 10.283 0 0 1-3.222 2.328 14.125 14.125 0 0 1-4.643.877c-1.967.1-3.262.15-3.97.136a.76.76 0 0 1 .012-1.52h.016c.656.014 1.958-.031 3.859-.133a12.943 12.943 0 0 0 4.127-.755 8.785 8.785 0 0 0 2.727-1.986 19.6 19.6 0 0 0 2.162-3c.835-1.433 2.063-3.679 3.646-6.671l.033-.056c.352-.548.7-1.039 1.027-1.461a5.562 5.562 0 0 1 2.849-2.152 2.949 2.949 0 0 1 2.917.919c1.228 1.228 2.281 3.6 3.224 7.247.295 1.193.579 2.516.846 3.942a.745.745 0 0 1 .005.256 33.263 33.263 0 0 1-4.012 12.012 20 20 0 0 1-12.736 9.426 34.251 34.251 0 0 1-7.887.745" transform="translate(8.99 50.875)"/>
                    <path id="패스_758" data-name="패스 758" class="cls-8" d="m65.782 73.176 1.576 4.387 1.937.8q.646-1.18.874-1.691a5.35 5.35 0 0 0 .457-1.824 3.1 3.1 0 0 0-.5-1.822A2.071 2.071 0 0 0 68.67 72a3.59 3.59 0 0 0-2.888 1.177" transform="translate(48.921 53.52)"/>
                    <path id="패스_759" data-name="패스 759" class="cls-6" d="M69.7 79.716a.931.931 0 0 1-.455-.117.949.949 0 0 1-.377-1.289c.417-.76.7-1.306.839-1.622a4.41 4.41 0 0 0 .375-1.48 2.143 2.143 0 0 0-.347-1.269 1.116 1.116 0 0 0-.8-.6 2.93 2.93 0 0 0-2.12.95.949.949 0 0 1-1.255-1.425 4.48 4.48 0 0 1 3.681-1.4 3.014 3.014 0 0 1 2.1 1.451 4.041 4.041 0 0 1 .642 2.37 6.31 6.31 0 0 1-.53 2.157c-.171.384-.467.959-.915 1.777a.947.947 0 0 1-.833.493" transform="translate(48.516 53.116)"/>
                    <path id="패스_760" data-name="패스 760" d="M21.949 72.017a3.8 3.8 0 0 0-1.867-.129 3.136 3.136 0 0 0-1.829.992 9.539 9.539 0 0 0-1.465 2.776 8.337 8.337 0 0 0-.218.647 2.44 2.44 0 0 1-.044.129 3.455 3.455 0 0 0-.115.364 28.627 28.627 0 0 0-.377 1.958q-.008.052-.021.1a33.007 33.007 0 0 0-.586 3.25c-.18 1.507-.218 3.418.511 4.439 1.374-.321 3.639-1.864 7.158-6.84.4-.595.771-1.187 1.076-1.74 1.006-1.824 1.259-3.226.75-4.171a4.167 4.167 0 0 0-2.53-1.554 1.344 1.344 0 0 1-.443-.227" transform="translate(11.392 53.413)" style="fill:#e54c28"/>
                    <path id="패스_761" data-name="패스 761" d="M25.419 68.822c1.147-1.126 1.707-2.131 1.663-2.987a.712.712 0 0 0-.065-.357s-.206-.18-1.008-.082a6.324 6.324 0 0 0-5.395 3.512 9.752 9.752 0 0 0-.469 6.638c.085.03.169.061.251.092a6.966 6.966 0 0 1 2.242 1.339 7.639 7.639 0 0 0 2.931-3.735 3.341 3.341 0 0 0-.45-2.509 1.61 1.61 0 0 1 .3-1.911" transform="translate(14.721 48.612)" style="fill:#90b726"/>
                    <path id="패스_762" data-name="패스 762" class="cls-6" d="M23.425 71.434a.349.349 0 0 1-.1-.12 5.264 5.264 0 0 0-2.854-.249 4.529 4.529 0 0 0-2.583 1.435 10.985 10.985 0 0 0-1.8 3.322 9.75 9.75 0 0 0-.253.753 4.623 4.623 0 0 0-.173.542c-.15.645-.288 1.348-.41 2.113a34.54 34.54 0 0 0-.614 3.411q-.547 4.575 1.33 6.108 3.539-.094 8.811-7.548.677-1 1.173-1.9 1.956-3.544.764-5.707a5.287 5.287 0 0 0-3.3-2.162m1.343 7.172c-.3.553-.671 1.147-1.076 1.74-3.519 4.976-5.784 6.521-7.158 6.84-.727-1.022-.69-2.933-.511-4.439.12-.975.319-2.068.588-3.25l.019-.1c.117-.722.248-1.395.377-1.958a3.3 3.3 0 0 1 .115-.363c.016-.044.031-.085.044-.129a7.51 7.51 0 0 1 .22-.649 9.486 9.486 0 0 1 1.463-2.774 3.143 3.143 0 0 1 1.829-.994 3.816 3.816 0 0 1 1.867.129 1.312 1.312 0 0 0 .443.227 4.167 4.167 0 0 1 2.53 1.554c.509.947.258 2.347-.75 4.171" transform="translate(10.797 52.775)"/>
                    <path id="패스_763" data-name="패스 763" class="cls-6" d="M26.92 70.534q2.255-2.213 2.15-4.239-.058-2.051-2.534-1.747a7.788 7.788 0 0 0-6.551 4.366q-1.739 3.466-.432 8.389c.047.071.08.112.1.12a5.3 5.3 0 0 1 3.294 2.162q6.541-4.533 3.97-9.051m-3.684 7.081a6.946 6.946 0 0 0-2.242-1.339c-.082-.033-.166-.063-.251-.094a9.758 9.758 0 0 1 .469-6.636 6.324 6.324 0 0 1 5.395-3.512c.8-.1 1.006.082 1.008.082a.708.708 0 0 1 .065.356c.044.858-.516 1.862-1.663 2.989a1.61 1.61 0 0 0-.3 1.911 3.339 3.339 0 0 1 .45 2.509 7.639 7.639 0 0 1-2.931 3.735" transform="translate(14.124 47.974)"/>
                    <path id="패스_764" data-name="패스 764" class="cls-8" d="m13.984 81.32 1.6-6.954.9-.616 1.074 1.119-.324 2.882-.928 2.713-1.705 1.817z" transform="translate(10.4 54.847)"/>
                    <path id="패스_765" data-name="패스 765" class="cls-8" d="m14.531 82.369 1.688-.574 1.439-1.322.077-1.864 1.4-2.331-.84-2.462-1.459-.18" transform="translate(10.806 54.762)"/>
                    <path id="패스_766" data-name="패스 766" d="M14.81 83.3a.654.654 0 0 1-.211-1.273l1.559-.53 1.137-1.044.065-1.594a.652.652 0 0 1 .094-.309l1.243-2.07-.612-1.787-1.055-.131a.654.654 0 0 1-.568-.729.644.644 0 0 1 .729-.568l1.461.18a.653.653 0 0 1 .539.438l.84 2.462a.65.65 0 0 1-.058.548l-1.313 2.188-.07 1.7a.661.661 0 0 1-.211.453l-1.437 1.322a.637.637 0 0 1-.232.136l-1.69.575a.637.637 0 0 1-.211.035" transform="translate(10.527 54.483)" style="fill:#070203"/>
                    <path id="패스_767" data-name="패스 767" class="cls-6" d="M15.279 83.157a.76.76 0 0 1-.166-1.5 2.952 2.952 0 0 0 1.32-.668 2.4 2.4 0 0 0 .736-1.153 1.351 1.351 0 0 0 .073-.61.674.674 0 0 0-.143-.392.761.761 0 0 1 .124-1.146 3.065 3.065 0 0 0 1.283-1.562 1.546 1.546 0 0 0 .005-.8.976.976 0 0 0-.352-.57.759.759 0 1 1 .888-1.231 2.455 2.455 0 0 1 .938 1.433 3.093 3.093 0 0 1-.026 1.616 4.309 4.309 0 0 1-1.323 1.944 2.537 2.537 0 0 1 .115.534 2.81 2.81 0 0 1-.129 1.235 3.9 3.9 0 0 1-1.182 1.847 4.516 4.516 0 0 1-1.993 1.01.686.686 0 0 1-.167.019" transform="translate(10.798 54.568)"/>
                </g>
            </g>
        </g>
    </g>
</svg>
