<svg xmlns="http://www.w3.org/2000/svg" width="180" height="180" viewBox="0 0 180 180">
    <defs>
        <linearGradient id="linear-gradient" x1=".5" x2=".5" y2="1" gradientUnits="objectBoundingBox">
            <stop offset="0" stop-color="#ffa058"/>
            <stop offset="1" stop-color="#ff586f"/>
        </linearGradient>
        <style>
            .cls-2{fill:url(#linear-gradient)}
        </style>
    </defs>
    <g id="그룹_40" data-name="그룹 40" transform="translate(-406 -928)">
        <circle id="타원_1" data-name="타원 1" cx="90" cy="90" r="90" transform="translate(406 928)" style="fill:#fcfcfc"/>
        <g id="noun-competition-win-4403659" transform="translate(452 968)">
            <path id="패스_673" data-name="패스 673" class="cls-2" d="M194.81 34.363h62.735v10.053H194.81z" transform="translate(-182.614 -34.363)"/>
            <path id="패스_674" data-name="패스 674" class="cls-2" d="M267.218 127.776v-28h-56.2v28.014a28.1 28.1 0 1 0 56.2-.018zm-28.1 10.018a15.268 15.268 0 1 1 15.268-15.268 15.269 15.269 0 0 1-15.267 15.268z" transform="translate(-195.546 -86.554)"/>
            <path id="패스_675" data-name="패스 675" class="cls-2" d="M246.176 510.02h-66.253a1.578 1.578 0 1 0 0 3.156h66.251a1.578 1.578 0 0 0 0-3.156z" transform="translate(-169.478 -413.851)"/>
            <path id="패스_676" data-name="패스 676" class="cls-2" d="M253.867 452.951v4.563h38.855v-4.563a4.788 4.788 0 0 0-4.786-4.786h-29.284a4.789 4.789 0 0 0-4.786 4.787z" transform="translate(-229.73 -364.502)"/>
            <path id="패스_677" data-name="패스 677" class="cls-2" d="m325.4 173.9-4.134-.6a.81.81 0 0 1-.635-.463l-1.853-3.74a.836.836 0 0 0-1.509 0l-1.853 3.74a.808.808 0 0 1-.635.463l-4.134.6a.843.843 0 0 0-.463 1.441l2.985 2.917a.822.822 0 0 1 .24.755l-.7 4.117a.85.85 0 0 0 1.235.892l3.706-1.938a.806.806 0 0 1 .789 0l3.706 1.938a.856.856 0 0 0 1.235-.892l-.7-4.117a.885.885 0 0 1 .24-.755l2.985-2.917a.856.856 0 0 0-.5-1.441z" transform="translate(-274.453 -141.476)"/>
            <path id="패스_678" data-name="패스 678" class="cls-2" d="M147.66 149.309a20.41 20.41 0 0 1-10.018-17.5v-8.543a2.258 2.258 0 0 1 2.247-2.266h6.93v-3.157h-6.93a5.418 5.418 0 0 0-5.4 5.421v8.543a23.557 23.557 0 0 0 14.461 21.649 28.417 28.417 0 0 1-1.287-4.151z" transform="translate(-134.485 -100.968)"/>
            <path id="패스_679" data-name="패스 679" class="cls-2" d="M503.047 117.858h-6.93v3.157h6.93a2.258 2.258 0 0 1 2.247 2.264v8.543a20.411 20.411 0 0 1-10.018 17.5 30.675 30.675 0 0 1-1.287 4.152 23.556 23.556 0 0 0 14.461-21.649v-8.545a5.418 5.418 0 0 0-5.4-5.422z" transform="translate(-421.304 -100.977)"/>
            <path id="패스_680" data-name="패스 680" class="cls-2" d="M329 390.56a30.682 30.682 0 0 1-5.2.463 32.588 32.588 0 0 1-5.2-.463c-.034.515-.069 1.046-.12 1.6a39.008 39.008 0 0 1-1.321 6.914h13.278a38.749 38.749 0 0 1-1.3-6.914 41.919 41.919 0 0 1-.137-1.6z" transform="translate(-280.226 -318.544)"/>
        </g>
    </g>
</svg>
