<svg xmlns="http://www.w3.org/2000/svg" width="180" height="180" viewBox="0 0 180 180">
    <defs>
        <linearGradient id="linear-gradient" x1=".5" x2=".5" y2="1" gradientUnits="objectBoundingBox">
            <stop offset="0" stop-color="#ffa058"/>
            <stop offset="1" stop-color="#ff586f"/>
        </linearGradient>
        <style>
            .cls-2{fill:url(#linear-gradient)}
        </style>
    </defs>
    <g id="그룹_39" data-name="그룹 39" transform="translate(-711 -928)">
        <circle id="타원_2" data-name="타원 2" cx="90" cy="90" r="90" transform="translate(711 928)" style="fill:#fcfcfc"/>
        <g id="noun-school-1788616" transform="translate(747 968)">
            <path id="패스_681" data-name="패스 681" class="cls-2" d="M224.959 108.2H191.5l-15.206-14.4v-3.969h19.89a1.685 1.685 0 0 0 1.685-1.685V70.285a1.685 1.685 0 0 0-1.685-1.685h-24.86a1.722 1.722 0 0 0-1.721 1.721V93.8l-15.211 14.4H120.94a2.354 2.354 0 0 0-2.354 2.354v11.975a2.353 2.353 0 0 0 2.354 2.353h24.429a2.874 2.874 0 0 0 1.975-.786l23.973-22.709a2.376 2.376 0 0 1 3.268 0l23.972 22.713a2.873 2.873 0 0 0 1.975.786h24.429a2.353 2.353 0 0 0 2.353-2.353v-11.975a2.353 2.353 0 0 0-2.353-2.354z" transform="translate(-118.586 -68.6)"/>
            <path id="패스_682" data-name="패스 682" class="cls-2" d="M294.143 303.256a2.817 2.817 0 0 0 2.817-2.817v-32.557a2.815 2.815 0 0 0-.884-2.048l-20.786-19.618a2.669 2.669 0 0 0-3.664 0l-20.786 19.618a2.818 2.818 0 0 0-.884 2.048v32.559a2.817 2.817 0 0 0 2.817 2.817h11v-12.643a1.764 1.764 0 0 1 1.764-1.764h15.834a1.764 1.764 0 0 1 1.764 1.764v12.642zm-20.685-28.117a8.494 8.494 0 1 1 8.494-8.494 8.494 8.494 0 0 1-8.494 8.494z" transform="translate(-219.096 -203.934)"/>
            <path id="패스_683" data-name="패스 683" class="cls-2" d="M337.232 317.45h-2.01a.668.668 0 0 0-.668.668v3.131h-3.013a.668.668 0 0 0-.668.668v2.01a.668.668 0 0 0 .668.668h5.127a1.23 1.23 0 0 0 1.231-1.231v-5.245a.667.667 0 0 0-.667-.669z" transform="translate(-281.004 -258.991)"/>
            <path id="패스_684" data-name="패스 684" class="cls-2" d="M501.66 335.56h-20.47a1.742 1.742 0 0 0-1.742 1.743v25.923a1.742 1.742 0 0 0 1.742 1.742h20.47a1.743 1.743 0 0 0 1.743-1.742V337.3a1.743 1.743 0 0 0-1.743-1.742zm-6.576 18.053a1.53 1.53 0 0 1-1.53 1.53H489.3a1.53 1.53 0 0 1-1.53-1.53v-6.7a1.53 1.53 0 0 1 1.53-1.53h4.26a1.529 1.529 0 0 1 1.53 1.53z" transform="translate(-394.677 -272.847)"/>
            <path id="패스_685" data-name="패스 685" class="cls-2" d="M120.328 364.965H140.8a1.741 1.741 0 0 0 1.742-1.742V337.3a1.742 1.742 0 0 0-1.742-1.743h-20.47a1.742 1.742 0 0 0-1.742 1.743v25.923a1.741 1.741 0 0 0 1.742 1.742zm6.576-18.054a1.53 1.53 0 0 1 1.53-1.53h4.26a1.529 1.529 0 0 1 1.53 1.53v6.7a1.53 1.53 0 0 1-1.53 1.53h-4.261a1.529 1.529 0 0 1-1.53-1.53z" transform="translate(-118.586 -272.845)"/>
        </g>
    </g>
</svg>
