<svg xmlns="http://www.w3.org/2000/svg" width="216.42" height="31.59" viewBox="0 0 216.42 31.59">
    <path data-name="패스 768" d="M11.79.42a8.985 8.985 0 0 0 7.08-3.27l-2.34-2.76a6.173 6.173 0 0 1-4.59 2.19c-3.51 0-5.79-2.91-5.79-7.74 0-4.77 2.52-7.65 5.88-7.65a5.725 5.725 0 0 1 4.08 1.86l2.34-2.82a9.056 9.056 0 0 0-6.51-2.85c-5.61 0-10.32 4.29-10.32 11.61C1.62-3.6 6.18.42 11.79.42zm13.62-9.57.66-2.43a159.9 159.9 0 0 0 1.89-7.26h.12c.66 2.4 1.26 4.95 1.95 7.26l.66 2.43zM33.21 0h4.65l-7.14-22.2H25.5L18.39 0h4.5l1.56-5.7h7.2zm10.5-18.69h2.88c2.85 0 4.41.81 4.41 3.21 0 2.37-1.56 3.57-4.41 3.57h-2.88zM56.31 0l-5.19-9.09a6.355 6.355 0 0 0 4.23-6.39c0-5.1-3.69-6.72-8.34-6.72h-7.74V0h4.44v-8.4h3.09L51.36 0zm6.66-18.69h2.88c2.85 0 4.41.81 4.41 3.21 0 2.37-1.56 3.57-4.41 3.57h-2.88zM75.57 0l-5.19-9.09a6.355 6.355 0 0 0 4.23-6.39c0-5.1-3.69-6.72-8.34-6.72h-7.74V0h4.44v-8.4h3.09L70.62 0zm11.04.42c5.88 0 9.93-4.41 9.93-11.61s-4.05-11.43-9.93-11.43-9.93 4.2-9.93 11.43c0 7.2 4.05 11.61 9.93 11.61zm0-3.84c-3.3 0-5.4-3.03-5.4-7.77 0-4.77 2.1-7.62 5.4-7.62s5.4 2.85 5.4 7.62c0 4.74-2.1 7.77-5.4 7.77zM103.17 0h4.44v-18.51h6.3v-3.69H96.93v3.69h6.24zm18.75 0h13.95v-3.72h-9.51v-5.94h7.8v-3.72h-7.8v-5.13h9.18v-3.69h-13.62zm16.89 0h4.38v-11.55c1.26-1.23 2.13-1.89 3.51-1.89 1.65 0 2.37.93 2.37 3.51V0h4.41v-10.47c0-4.23-1.56-6.75-5.19-6.75a7.743 7.743 0 0 0-5.46 2.64h-.12l-.3-2.22h-3.6zm23.94 7.29c5.61 0 9.12-2.58 9.12-5.97 0-2.94-2.19-4.2-6.24-4.2h-2.85c-1.98 0-2.64-.48-2.64-1.38a1.674 1.674 0 0 1 .72-1.44 7.155 7.155 0 0 0 2.16.39c3.6 0 6.48-1.92 6.48-5.7a4.227 4.227 0 0 0-.78-2.55h2.88v-3.24h-6.06a7.9 7.9 0 0 0-2.52-.42c-3.57 0-6.78 2.13-6.78 6.09a5.552 5.552 0 0 0 2.22 4.38v.12a4.169 4.169 0 0 0-1.86 3.15 3.184 3.184 0 0 0 1.53 2.82v.15a4.079 4.079 0 0 0-2.4 3.48c0 2.97 3.06 4.32 7.02 4.32zm.27-15.33c-1.47 0-2.64-1.11-2.64-3.09s1.14-3.09 2.64-3.09 2.61 1.11 2.61 3.09-1.14 3.09-2.61 3.09zm.39 12.54c-2.46 0-4.02-.81-4.02-2.22A2.52 2.52 0 0 1 160.5.33a9.482 9.482 0 0 0 2.34.24h2.04c1.8 0 2.79.3 2.79 1.5 0 1.32-1.74 2.43-4.26 2.43zM177.69.42a6.005 6.005 0 0 0 2.28-.39l-.54-3.27a2.485 2.485 0 0 1-.6.06c-.42 0-.9-.33-.9-1.32v-19.44h-4.38v19.23c0 3.12 1.08 5.13 4.14 5.13zM181.8 0h4.38v-16.8h-4.38zm2.22-19.5a2.442 2.442 0 0 0 2.61-2.4 2.407 2.407 0 0 0-2.61-2.4 2.417 2.417 0 0 0-2.64 2.4 2.451 2.451 0 0 0 2.64 2.4zM194.52.42c4.38 0 6.69-2.37 6.69-5.31 0-3.12-2.46-4.23-4.68-5.07-1.77-.66-3.42-1.11-3.42-2.34 0-.96.72-1.62 2.22-1.62a6.467 6.467 0 0 1 3.63 1.44l1.98-2.67a9.4 9.4 0 0 0-5.73-2.07c-3.78 0-6.24 2.13-6.24 5.16 0 2.79 2.46 4.08 4.59 4.89 1.77.69 3.51 1.26 3.51 2.52 0 1.05-.75 1.77-2.43 1.77a7.293 7.293 0 0 1-4.5-1.83l-2.01 2.76a10.586 10.586 0 0 0 6.39 2.37zm8.85-.42h4.38v-11.55c1.26-1.23 2.13-1.89 3.51-1.89 1.65 0 2.37.93 2.37 3.51V0h4.41v-10.47c0-4.23-1.56-6.75-5.19-6.75a7.645 7.645 0 0 0-5.28 2.46l.18-3.15v-6.03h-4.38z" transform="translate(-1.62 24.3)" style="fill:#fff"/>
</svg>
