<svg xmlns="http://www.w3.org/2000/svg" width="31.758" height="25.985" viewBox="0 0 31.758 25.985">
    <path d="M125.088 81.551v10.393a4.2 4.2 0 0 1-4.331 4.042h-23.1a4.2 4.2 0 0 1-4.331-4.042V81.551a1.444 1.444 0 0 1 2.887 0v10.393a1.342 1.342 0 0 0 1.448 1.156h23.1a1.342 1.342 0 0 0 1.443-1.155V81.551a1.444 1.444 0 0 1 2.887 0zm-19.358-4.576 2.035-2.05v12.4a1.443 1.443 0 1 0 2.887 0v-12.4l2.035 2.05a1.449 1.449 0 0 0 2.05-2.05l-4.5-4.5a1.443 1.443 0 0 0-.927-.425h-.274a1.443 1.443 0 0 0-.779.347h-.072l-4.5 4.576a1.449 1.449 0 1 0 2.05 2.05z" transform="translate(-93.33 -70.002)" style="fill:#445dff"/>
</svg>
